<svg width="1200" height="630" viewBox="0 0 1200 630" fill="none" xmlns="http://www.w3.org/2000/svg">
  <defs>
    <linearGradient id="bg" x1="0" y1="0" x2="1200" y2="630" gradientUnits="userSpaceOnUse">
      <stop offset="0%" stop-color="#1E1B4B"/>
      <stop offset="50%" stop-color="#312E81"/>
      <stop offset="100%" stop-color="#1E3A5F"/>
    </linearGradient>
    <linearGradient id="accent" x1="0" y1="0" x2="400" y2="400" gradientUnits="userSpaceOnUse">
      <stop offset="0%" stop-color="#6366F1"/>
      <stop offset="50%" stop-color="#8B5CF6"/>
      <stop offset="100%" stop-color="#06B6D4"/>
    </linearGradient>
    <linearGradient id="birdG" x1="0" y1="0" x2="180" y2="180" gradientUnits="userSpaceOnUse">
      <stop offset="0%" stop-color="#818CF8"/>
      <stop offset="100%" stop-color="#06B6D4"/>
    </linearGradient>
  </defs>

  <!-- Background -->
  <rect width="1200" height="630" fill="url(#bg)"/>

  <!-- Decorative circles -->
  <circle cx="1050" cy="120" r="200" fill="rgba(99,102,241,0.1)"/>
  <circle cx="150" cy="520" r="160" fill="rgba(6,182,212,0.07)"/>
  <circle cx="900" cy="500" r="120" fill="rgba(139,92,246,0.08)"/>

  <!-- Bird logo (scaled up) -->
  <g transform="translate(80, 60) scale(2.2)">
    <path d="M8 22 C18 8 34 6 44 14 C36 14 28 16 24 22 Z" fill="url(#birdG)" opacity="0.9"/>
    <path d="M8 22 C4 16 0 18 2 24 C6 22 8 22 8 22 Z" fill="url(#birdG)" opacity="0.7"/>
    <ellipse cx="33" cy="30" rx="10" ry="6.5" fill="url(#birdG)"/>
    <circle cx="42" cy="24" r="6" fill="url(#birdG)"/>
    <path d="M48 23 L58 26 L48 28 Z" fill="#FBBF24"/>
    <circle cx="44" cy="23" r="1.8" fill="white"/>
    <circle cx="44.5" cy="23" r="0.9" fill="#1E1B4B"/>
    <path d="M30 34 C20 44 8 48 4 44 C12 40 22 36 28 30 Z" fill="url(#birdG)" opacity="0.65"/>
    <path d="M23 32 C14 30 6 36 8 42 C13 36 19 34 25 38 Z" fill="url(#birdG)" opacity="0.75"/>
  </g>

  <!-- Brand name -->
  <text x="80" y="220" fill="white" font-size="64" font-family="'Inter', Arial, sans-serif" font-weight="900" letter-spacing="-1">Freelancing</text>
  <text x="80" y="292" fill="url(#accent)" font-size="64" font-family="'Inter', Arial, sans-serif" font-weight="900" letter-spacing="-1">Institute BD</text>

  <!-- Tagline -->
  <text x="80" y="358" fill="rgba(199,210,254,0.75)" font-size="28" font-family="Arial, sans-serif" font-weight="400">Learn. Build. Earn Online.</text>

  <!-- Divider -->
  <rect x="80" y="388" width="500" height="3" rx="1.5" fill="url(#accent)" opacity="0.5"/>

  <!-- Stats -->
  <text x="80" y="448" fill="white" font-size="40" font-family="Arial, sans-serif" font-weight="900">5,000+</text>
  <text x="80" y="478" fill="rgba(199,210,254,0.6)" font-size="18" font-family="Arial, sans-serif">Students Trained</text>

  <text x="280" y="448" fill="white" font-size="40" font-family="Arial, sans-serif" font-weight="900">1,500+</text>
  <text x="280" y="478" fill="rgba(199,210,254,0.6)" font-size="18" font-family="Arial, sans-serif">Active Earners</text>

  <text x="490" y="448" fill="white" font-size="40" font-family="Arial, sans-serif" font-weight="900">৳2Cr+</text>
  <text x="490" y="478" fill="rgba(199,210,254,0.6)" font-size="18" font-family="Arial, sans-serif">Monthly Income</text>

  <!-- URL badge -->
  <rect x="80" y="530" width="380" height="52" rx="26" fill="rgba(255,255,255,0.1)" stroke="rgba(255,255,255,0.2)" stroke-width="1.5"/>
  <text x="270" y="562" fill="white" font-size="22" font-family="Arial, sans-serif" font-weight="700" text-anchor="middle">freelancinginstitutebd.com</text>

  <!-- Bangladesh flag accent -->
  <rect x="1100" y="20" width="80" height="54" rx="4" fill="#006A4E"/>
  <circle cx="1140" cy="47" r="16" fill="#F42A41"/>
</svg>